<?xml version="1.0" encoding="UTF-8" standalone="no"?>
<!-- Created with Inkscape (http://www.inkscape.org/) -->
<svg
   xmlns:svg="http://www.w3.org/2000/svg"
   xmlns="http://www.w3.org/2000/svg"
   version="1.0"
   width="740"
   height="194.28572"
   id="svg3905">
  <defs
     id="defs3907" />
  <g
     transform="translate(340,-360.93362)"
     id="layer1">
    <path
       d="M 13.566821,431.67841 C 13.566821,425.69789 18.309991,420.80915 24.096416,420.80915 L 29.870709,420.80915 C 35.657134,420.80915 40.400304,425.69789 40.400304,431.67841 L 40.400304,533.56558 C 40.400304,539.54609 35.657134,544.43483 29.870709,544.43483 L 24.096416,544.43483 C 18.309991,544.43483 13.566821,539.54609 13.566821,533.56558 L 13.566821,431.67841"
       id="path119"
       style="fill:#009079;fill-opacity:1;fill-rule:nonzero;stroke:none" />
    <path
       d="M 362.15947,384.33163 L 362.15947,420.80915 L 378.56041,420.80915 C 384.28618,420.80915 389.09,424.59398 389.09,430.63515 L 389.09,445.64104 L 362.15947,445.64104 L 362.15947,544.4227 L 345.97689,544.43483 C 340.17834,544.43483 335.33812,539.54609 335.33812,533.56558 L 335.32599,384.33163 C 335.32599,378.35111 340.06916,373.4745 345.85558,373.4745 L 351.62988,373.4745 C 357.4163,373.4745 362.15947,378.35111 362.15947,384.33163"
       id="path123"
       style="fill:#009079;fill-opacity:1;fill-rule:nonzero;stroke:none" />
    <path
       d="M 294.77249,456.24342 C 294.77249,450.32355 290.23555,445.64104 284.49765,445.64104 L 270.69272,445.64104 C 264.95482,445.64104 260.41787,450.32355 260.41787,456.24342 L 260.41787,533.56558 C 260.41787,539.54609 255.6747,544.43483 249.88828,544.43483 L 244.11399,544.43483 C 238.32756,544.43483 233.58439,539.54609 233.58439,533.56558 L 233.58439,430.90203 C 233.58439,427.12933 235.94991,420.80915 243.11925,420.80915 L 251.91413,420.80915 L 258.33136,429.0824 C 259.52019,430.79285 260.90311,431.33874 261.94636,431.33874 C 263.14732,431.33874 264.50598,430.74433 266.19217,429.55551 C 267.87836,428.36668 269.71012,427.22638 271.9422,425.73428 C 276.23653,422.88353 281.95017,420.03277 289.5077,420.03277 L 293.26827,420.03277 C 311.41605,420.03277 321.60598,435.08718 321.60598,451.85204 L 321.60598,533.56558 C 321.60598,539.54609 316.86281,544.43483 311.07638,544.43483 L 305.30209,544.43483 C 299.51566,544.43483 294.77249,539.54609 294.77249,533.56558 L 294.77249,456.24342"
       id="path127"
       style="fill:#009079;fill-opacity:1;fill-rule:nonzero;stroke:none" />
    <path
       d="M 105.15488,373.4745 L 110.91704,373.4745 C 116.7156,373.4745 121.45877,378.36324 121.45877,384.33163 L 121.45877,544.4227 L 105.15488,544.4227 C 99.368457,544.4227 94.625288,539.54609 94.625288,533.56558 L 94.625288,384.33163 C 94.625288,378.36324 99.368457,373.4745 105.15488,373.4745"
       id="path131"
       style="fill:#009079;fill-opacity:1;fill-rule:nonzero;stroke:none" />
    <path
       d="M 64.613518,373.4745 L 70.387812,373.4745 C 76.174236,373.4745 80.917406,378.36324 80.917406,384.33163 L 80.917406,544.4227 L 64.613518,544.4227 C 58.827093,544.4227 54.083924,539.54609 54.083924,533.56558 L 54.083924,384.33163 C 54.083924,378.36324 58.827093,373.4745 64.613518,373.4745"
       id="path135"
       style="fill:#009079;fill-opacity:1;fill-rule:nonzero;stroke:none" />
    <path
       d="M -61.292771,500.46043 L -61.292771,508.98844 C -61.292771,514.9083 -56.755826,519.59081 -51.005794,519.59081 L -37.212996,519.59081 C -31.475095,519.59081 -26.93815,514.9083 -26.93815,508.98844 L -26.93815,500.46043 C -26.93815,494.54057 -31.475095,489.85806 -37.212996,489.85806 L -51.005794,489.85806 C -56.755826,489.85806 -61.292771,494.54057 -61.292771,500.46043 z M -28.709257,534.439 C -30.104307,534.439 -31.426571,534.98489 -32.930799,536.11306 C -34.447158,537.25336 -36.024171,538.27235 -37.940848,539.74019 C -41.640763,542.57881 -46.832775,545.19908 -54.766363,545.19908 L -58.284315,545.19908 C -76.153085,545.19908 -88.126253,529.92632 -88.126253,513.13719 L -88.126253,496.06906 C -88.126253,479.26781 -76.153085,464.24979 -58.284315,464.24979 L -54.766363,464.24979 C -46.832775,464.24979 -41.640763,467.03989 -37.928717,469.97556 C -35.999909,471.50405 -34.447158,472.59583 -32.918668,473.78465 C -31.426571,474.94922 -30.492495,475.5315 -29.085314,475.5315 C -28.539425,475.5315 -27.653871,475.30101 -27.36273,474.64595 C -27.095851,474.0394 -26.93815,473.11746 -26.93815,471.96502 L -26.93815,455.20016 C -26.93815,450.0688 -30.977729,445.64104 -36.460882,445.64104 L -79.100886,445.64104 L -79.100886,429.0824 C -79.100886,424.0117 -74.466894,420.80915 -68.813909,420.80915 L -32.700313,420.80915 C -9.857886,420.80915 -0.1046678,434.49277 -0.1046678,451.58516 L -0.1046678,534.34195 C -0.1046678,538.10252 -2.4701873,544.4227 -9.6274,544.4227 L -18.434411,544.4227 L -24.596892,536.4042 C -25.737194,534.76653 -27.095851,534.439 -28.709257,534.439"
       id="path139"
       style="fill:#009079;fill-opacity:1;fill-rule:evenodd;stroke:none" />
    <path
       d="M 158.71267,500.47257 L 158.71267,509.00057 C 158.71267,514.92043 163.24961,519.60295 168.99965,519.60295 L 182.79244,519.60295 C 188.53034,519.60295 193.06729,514.92043 193.06729,509.00057 L 193.06729,500.47257 C 193.06729,494.5527 188.53034,489.87019 182.79244,489.87019 L 168.99965,489.87019 C 163.24961,489.87019 158.71267,494.5527 158.71267,500.47257 z M 191.29618,534.439 C 189.90113,534.439 188.57887,534.99702 187.07464,536.12519 C 185.55828,537.26549 183.98127,538.28448 182.06459,539.75232 C 178.36468,542.59094 173.17266,545.21121 165.23908,545.21121 L 161.72112,545.21121 C 143.85235,545.21121 131.87919,529.93845 131.87919,513.13719 L 131.87919,496.08119 C 131.87919,479.27994 143.85235,464.26192 161.72112,464.26192 L 165.23908,464.26192 C 173.17266,464.26192 178.36468,467.06415 182.07672,469.98769 C 184.00553,471.51618 185.55828,472.60796 187.08677,473.79678 C 188.57887,474.96135 189.51294,475.54363 190.90799,475.54363 C 191.46601,475.54363 192.35157,475.31314 192.64271,474.65808 C 192.90959,474.05153 193.06729,473.12959 193.06729,471.97715 L 193.06729,455.21229 C 193.06729,450.08094 189.02771,445.65317 183.54456,445.65317 L 140.90455,445.65317 L 140.90455,429.09453 C 140.90455,424.03596 145.53854,420.82128 151.19153,420.82128 L 187.30513,420.82128 C 210.14755,420.82128 219.90077,434.5049 219.90077,451.59729 L 219.90077,534.35408 C 219.90077,538.11465 217.53525,544.43483 210.36591,544.43483 L 201.57103,544.43483 L 195.40855,536.41633 C 194.26825,534.77866 192.90959,534.439 191.29618,534.439"
       id="path143"
       style="fill:#009079;fill-opacity:1;fill-rule:evenodd;stroke:none" />
    <path
       d="M -131.27575,505.50688 C -130.26889,495.52317 -127.64862,479.42551 -123.94871,463.36424 L -105.04881,381.92971 C -103.71442,376.1069 -98.01291,372.41911 -92.359926,373.71712 L -86.743334,375.01512 C -81.10248,376.31312 -77.584528,382.14807 -78.931054,387.97089 L -111.6844,529.55026 C -113.47977,536.68321 -120.90386,544.4227 -127.72141,544.4227 L -135.18189,544.4227 C -141.99944,544.4227 -149.42353,536.68321 -151.2189,529.55026 L -183.97225,387.97089 C -185.31877,382.14807 -181.80082,376.31312 -176.15997,375.01512 L -170.54338,373.71712 C -164.89039,372.41911 -159.20101,376.1069 -157.85449,381.92971 L -138.95459,463.36424 C -135.25468,479.42551 -132.63441,495.52317 -131.62755,505.50688 L -131.27575,505.50688"
       id="path147"
       style="fill:#009079;fill-opacity:1;fill-rule:nonzero;stroke:none" />
    <path
       d="M 13.566821,384.33163 C 13.566821,378.35111 18.309991,373.4745 24.096416,373.4745 L 29.870709,373.4745 C 35.657134,373.4745 40.400304,378.35111 40.400304,384.33163 L 40.400304,396.48676 C 40.400304,402.46728 35.657134,407.34388 29.870709,407.34388 L 24.096416,407.34388 C 18.309991,407.34388 13.566821,402.46728 13.566821,396.48676 L 13.566821,384.33163"
       id="path151"
       style="fill:#009079;fill-opacity:1;fill-rule:nonzero;stroke:none" />
    <path
       d="M -319.02521,544.4227 C -325.52736,544.4227 -330.80429,539.20643 -330.80429,532.76494 L -330.80429,385.13226 C -330.80429,378.69077 -325.52736,373.4745 -319.02521,373.4745 L -209.27724,373.4745 C -202.7751,373.4745 -197.49817,378.69077 -197.49817,385.13226 L -197.49817,532.76494 C -197.49817,539.20643 -202.7751,544.4227 -209.27724,544.4227 L -319.02521,544.4227"
       id="path155"
       style="fill:#009079;fill-opacity:1;fill-rule:nonzero;stroke:none" />
    <path
       d="M -264.15729,534.98489 C -295.78247,534.98489 -317.6059,508.47894 -315.14333,466.23925 C -314.36696,452.87104 -310.97032,440.29132 -305.75404,429.64042 C -309.73297,424.13301 -314.88859,415.75058 -318.55211,407.17405 C -323.30741,396.08644 -324.59328,385.07161 -321.36647,381.91758 C -317.20558,377.85374 -311.88013,382.93658 -308.62906,386.12699 C -306.34845,388.35907 -304.27408,390.38493 -301.13218,394.16976 C -298.51191,397.32379 -295.13953,401.71516 -290.27505,408.52058 C -282.55982,401.55746 -273.58298,397.49362 -264.16942,397.49362 C -254.75587,397.49362 -245.76689,401.55746 -238.03953,408.52058 C -233.17505,401.71516 -229.8148,397.32379 -227.19453,394.16976 C -224.05264,390.38493 -221.97826,388.35907 -219.68553,386.12699 C -216.43445,382.93658 -211.12113,377.85374 -206.96024,381.91758 C -203.7213,385.07161 -205.01931,396.08644 -209.77461,407.17405 C -213.43813,415.75058 -218.59375,424.13301 -222.57267,429.64042 C -217.34427,440.29132 -213.95976,452.87104 -213.18338,466.23925 C -210.72081,508.47894 -232.53212,534.98489 -264.15729,534.98489"
       id="path159"
       style="fill:#ffffff;fill-opacity:1;fill-rule:nonzero;stroke:none" />
    <path
       d="M -264.15729,520.42784 C -271.29024,520.40358 -275.48752,514.16832 -276.67635,513.23424 C -278.7022,512.00902 -285.20435,510.12874 -289.47442,503.76003 L -306.73664,504.66985 C -307.51302,504.70624 -308.16808,504.13609 -308.20448,503.38397 C -308.253,502.64399 -307.65859,502.00105 -306.88221,501.96466 L -282.70539,500.69092 C -281.46804,505.85867 -276.70061,507.60552 -273.20692,507.66617 C -270.07716,507.72683 -263.57501,502.74104 -267.97852,497.98574 C -269.11882,496.76052 -271.3509,496.05693 -271.72695,493.61862 C -272.01809,491.70195 -270.56239,489.65183 -269.55553,488.35383 C -268.68211,487.21353 -267.43263,485.867 -267.7359,478.77044 C -268.08769,470.50932 -270.59878,463.55833 -273.89838,458.09944 C -277.37994,452.33728 -280.89789,449.58357 -284.56141,450.15372 C -288.4069,450.76026 -289.81408,456.86209 -289.15901,462.83048 C -288.55247,468.33789 -284.56141,474.43972 -282.65687,476.86589 C -280.87363,479.13437 -279.49071,482.08217 -279.10252,484.87227 C -278.79925,486.72829 -279.11465,488.46301 -279.78185,489.74888 C -280.42479,491.01049 -281.90475,492.29636 -282.64474,495.00154 L -310.27886,493.55797 C -311.05523,493.52158 -311.64964,492.87864 -311.61325,492.12653 C -311.56473,491.38654 -310.90966,490.81639 -310.14542,490.85279 L -293.25925,491.73834 C -293.50186,487.71089 -292.82254,484.0595 -291.65797,480.80843 C -290.96651,478.85536 -290.80881,475.91969 -291.6701,472.77779 C -292.54353,469.6359 -295.46706,463.58259 -294.812,456.14637 C -294.10841,448.2977 -289.99604,443.89419 -288.18854,441.72277 C -287.99445,440.26706 -290.28718,436.16683 -291.45175,434.08032 C -293.30777,430.75646 -295.97656,426.92311 -300.47711,417.83709 C -303.15804,412.43885 -303.71606,410.60709 -308.08317,400.22306 C -310.08476,395.50416 -311.77095,392.98094 -313.56632,393.52682 C -314.9735,393.97567 -314.73088,396.36545 -314.12434,398.68244 C -313.42075,401.35124 -310.94605,407.47732 -307.85268,413.70046 C -304.77144,419.91146 -300.74399,426.49853 -297.46866,430.99908 C -294.4602,435.13571 -290.43275,439.39364 -291.28191,440.0851 C -292.36156,440.95852 -296.71654,436.50649 -300.12532,432.79445 C -303.67966,428.91257 -311.37063,417.74004 -316.29577,406.21571 C -321.23303,394.69139 -321.48778,385.47193 -319.65602,383.67656 C -317.56951,381.63857 -314.51253,383.81 -310.35164,387.87384 C -305.88748,392.25308 -302.22396,395.7953 -289.43802,413.95521 C -283.37259,422.56813 -278.18058,432.63675 -277.78026,433.35247 C -277.53764,433.78918 -277.22224,434.17737 -276.43373,434.0318 C -274.78393,433.72852 -271.88466,431.31448 -264.16942,431.29022 C -256.44206,431.31448 -253.54278,433.72852 -251.88085,434.0318 C -251.10448,434.17737 -250.78907,433.78918 -250.54646,433.35247 C -250.14614,432.63675 -244.942,422.56813 -238.88869,413.95521 C -226.10276,395.7953 -222.43923,392.25308 -217.97507,387.87384 C -213.81419,383.81 -210.75721,381.63857 -208.6707,383.67656 C -206.83894,385.47193 -207.09368,394.69139 -212.01882,406.21571 C -216.95608,417.74004 -224.64705,428.91257 -228.2014,432.79445 C -231.61017,436.50649 -235.95302,440.95852 -237.0448,440.0851 C -237.88183,439.39364 -233.85438,435.13571 -230.84593,430.99908 C -227.58272,426.49853 -223.55527,419.91146 -220.47403,413.70046 C -217.38066,407.47732 -214.89383,401.35124 -214.19024,398.68244 C -213.5837,396.36545 -213.35321,393.97567 -214.76039,393.52682 C -216.55576,392.98094 -218.24195,395.50416 -220.23142,400.22306 C -224.61066,410.60709 -225.16868,412.43885 -227.83747,417.83709 C -232.33802,426.92311 -235.01894,430.75646 -236.87497,434.08032 C -238.03953,436.16683 -240.33227,440.26706 -240.45357,440.60673 C -238.33067,443.89419 -234.20618,448.2977 -233.51472,456.14637 C -232.85965,463.58259 -235.78319,469.6359 -236.65661,472.77779 C -237.5179,475.91969 -237.3602,478.85536 -236.65661,480.80843 C -235.50418,484.0595 -234.82485,487.71089 -235.06747,491.73834 L -218.1813,490.85279 C -217.41705,490.81639 -216.74986,491.38654 -216.71346,492.12653 C -216.67707,492.87864 -217.27148,493.52158 -218.04786,493.55797 L -245.68198,495.00154 C -246.40983,492.29636 -247.8898,491.01049 -248.54486,489.74888 C -249.21206,488.46301 -249.52746,486.72829 -249.22419,484.87227 C -248.836,482.08217 -247.44095,479.13437 -245.66985,476.86589 C -243.7653,474.43972 -239.76211,468.33789 -239.1677,462.83048 C -238.51263,456.86209 -239.90768,450.76026 -243.7653,450.15372 C -247.42882,449.58357 -250.94678,452.33728 -254.42833,458.09944 C -257.72793,463.55833 -260.23902,470.50932 -260.59082,478.77044 C -260.88196,485.867 -259.64461,487.21353 -258.75906,488.35383 C -257.76432,489.65183 -256.30862,491.70195 -256.59976,493.61862 C -256.97582,496.05693 -259.2079,496.76052 -260.3482,497.98574 C -264.7517,502.74104 -258.24956,507.72683 -255.11979,507.66617 C -251.6261,507.60552 -246.84654,505.85867 -245.62132,500.69092 L -221.4445,501.96466 C -220.66813,502.00105 -220.07371,502.64399 -220.11011,503.38397 C -220.15863,504.13609 -220.8137,504.70624 -221.57794,504.66985 L -238.8523,503.76003 C -243.12237,510.12874 -249.62451,512.00902 -251.65037,513.23424 C -252.83919,514.16832 -257.02434,520.40358 -264.15729,520.42784"
       id="path163"
       style="fill:#231f20;fill-opacity:1;fill-rule:nonzero;stroke:none" />
    <path
       d="M -264.15729,515.23583 C -266.51068,515.23583 -269.21586,514.25323 -270.97484,512.34869 C -268.75489,511.73001 -266.03758,510.14087 -264.16942,508.07862 C -262.28914,510.14087 -259.57182,511.73001 -257.35187,512.34869 C -259.11085,514.25323 -261.81603,515.23583 -264.15729,515.23583"
       id="path167"
       style="fill:#ffffff;fill-opacity:1;fill-rule:nonzero;stroke:none" />
    <path
       d="M -245.37871,499.1503 L -219.62487,499.23522 C -218.8485,499.23522 -218.1813,498.55589 -218.1813,497.81591 C -218.1813,497.06379 -218.8485,496.38446 -219.62487,496.38446 L -245.40297,496.48151 C -245.31805,497.20936 -245.29379,498.02213 -245.35444,498.93195 L -245.37871,499.1503"
       id="path171"
       style="fill:#231f20;fill-opacity:1;fill-rule:nonzero;stroke:none" />
    <path
       d="M -255.09553,469.52672 C -255.60503,469.39328 -255.37454,466.39695 -254.07654,462.68491 C -253.34869,460.5984 -251.32283,456.49817 -246.89507,456.43751 C -244.12923,456.40112 -242.17616,458.36632 -243.07384,459.19122 C -243.58334,459.66432 -244.42037,458.7909 -245.47575,458.58467 C -246.45835,458.39058 -250.00057,457.44437 -252.6087,463.24293 C -254.35555,467.14907 -254.51325,469.68442 -255.09553,469.52672"
       id="path175"
       style="fill:#231f20;fill-opacity:1;fill-rule:nonzero;stroke:none" />
    <path
       d="M -253.00902,469.05361 C -252.68149,467.90118 -252.51166,467.30677 -252.2933,466.99137 C -251.23792,467.05202 -249.64877,467.53726 -249.01797,466.3363 C -248.41142,465.18387 -249.68517,464.18914 -250.34023,463.95865 C -249.32124,461.48395 -246.79802,460.0889 -244.99052,461.32625 C -243.38924,462.41803 -243.19515,467.07628 -245.18461,469.84212 C -248.05963,473.83318 -251.33496,474.71873 -252.57231,473.90596 C -253.68835,473.19024 -253.70048,471.45553 -253.00902,469.05361"
       id="path179"
       style="fill:#231f20;fill-opacity:1;fill-rule:nonzero;stroke:none" />
    <path
       d="M -282.93588,499.1503 L -308.68971,499.23522 C -309.46609,499.23522 -310.12115,498.55589 -310.12115,497.81591 C -310.12115,497.06379 -309.46609,496.38446 -308.68971,496.38446 L -282.91162,496.48151 C -282.99653,497.20936 -283.02079,498.02213 -282.96014,498.93195 L -282.93588,499.1503"
       id="path183"
       style="fill:#231f20;fill-opacity:1;fill-rule:nonzero;stroke:none" />
    <path
       d="M -273.21905,469.52672 C -272.70955,469.39328 -272.94004,466.39695 -274.23804,462.68491 C -274.9659,460.5984 -276.99175,456.49817 -281.41952,456.43751 C -284.18536,456.40112 -286.13843,458.36632 -285.24074,459.19122 C -284.73125,459.66432 -283.89422,458.7909 -282.83883,458.58467 C -281.85623,458.39058 -278.31402,457.44437 -275.70588,463.24293 C -273.95903,467.14907 -273.80133,469.68442 -273.21905,469.52672"
       id="path187"
       style="fill:#231f20;fill-opacity:1;fill-rule:nonzero;stroke:none" />
    <path
       d="M -275.30556,469.05361 C -275.63309,467.90118 -275.80293,467.30677 -276.02128,466.99137 C -277.07667,467.05202 -278.66581,467.53726 -279.29662,466.3363 C -279.90316,465.18387 -278.62942,464.18914 -277.97435,463.95865 C -278.98121,461.48395 -281.51657,460.0889 -283.32406,461.32625 C -284.91321,462.41803 -285.11943,467.07628 -283.12997,469.84212 C -280.25495,473.83318 -276.97962,474.71873 -275.74227,473.90596 C -274.6141,473.19024 -274.6141,471.45553 -275.30556,469.05361"
       id="path191"
       style="fill:#231f20;fill-opacity:1;fill-rule:nonzero;stroke:none" />
  </g>
</svg>
